# xmcd
#
# Track frame offsets: 
#        150
#        12096
#        28055
#        44197
#        66003
#        87462
#        106323
#        117310
#        129787
#        145233
#        161915
#        174209
#        191546
#        201640
#        211826
#        225930
#        243069
#        257681
#        272895
#        287150
#        299430
#        316903
#        334737
#        343118
#        351607
#
# Disc length: 4788 seconds
#
# Revision: 0
# Processed by: cddbd v1.5.2PL0 Copyright (c) Steve Scherf et al.
# Submitted via: ExactAudioCopy v1.0b1
#
DISCID=8212b219
DTITLE=Various Artist - Dubnyt
DYEAR=2006
DGENRE=Dub
TTITLE0=Rythm and Sound - Distance
TTITLE1=Off The Sky - Nonlinear
TTITLE2=Selffish - Static Cloud
TTITLE3=Mr. Cloudy - Vague Times
TTITLE4=Rhythm and Sound - Aerial
TTITLE5=Deadbeat - Ruination
TTITLE6=Hieronymus - Elements
TTITLE7=Xoki - AU-709
TTITLE8=sgnl_fltr - All Form
TTITLE9=Atki2 - Guily Pleasures (Pinch RMX)
TTITLE10=Blackdown - The Danger Line
TTITLE11=Skream - Deep Concentration
TTITLE12=Various Production - Don't Ask
TTITLE13=Various Production - Today
TTITLE14=RPK - Hiuka
TTITLE15=Burial - You Hurt Me
TTITLE16=Search and Destroy - Candyfloss (Loefah Remix)
TTITLE17=Caspa - For The Kids
TTITLE18=Emalkay - Frequency
TTITLE19=Vex'd - Killing Floor
TTITLE20=Boxcutter - Grub
TTITLE21=Moderat - Let Your Love Grow
TTITLE22=Vex'd - Cold
TTITLE23=Cuantico - Solido
TTITLE24=Remote_ - Permafrost
EXTD=
EXTT0=
EXTT1=
EXTT2=
EXTT3=
EXTT4=
EXTT5=
EXTT6=
EXTT7=
EXTT8=
EXTT9=
EXTT10=
EXTT11=
EXTT12=
EXTT13=
EXTT14=
EXTT15=
EXTT16=
EXTT17=
EXTT18=
EXTT19=
EXTT20=
EXTT21=
EXTT22=
EXTT23=
EXTT24=
PLAYORDER=
